<?xml version="1.0" encoding="UTF-8" standalone="no"?>
<!-- Created with Inkscape (http://www.inkscape.org/) -->

<svg
   viewBox="0 0 63.983875 62.064938"
   version="1.1"
   id="SVGRoot"
   xml:space="preserve"
   xmlns="http://www.w3.org/2000/svg"
   xmlns:svg="http://www.w3.org/2000/svg"><defs
     id="defs22132" /><g
     id="layer1"
     transform="translate(-0.02480795,-0.96158516)"><path
       style="stroke-width:0.131501"
       d="M 28.312271,62.918559 C 20.25033,62.690083 12.83911,56.86121 10.383301,49.247498 9.4491601,45.54423 9.6448185,41.649608 9.8907742,37.878765 c 1.1438278,-1.771779 0.1370478,4.220997 0.6458538,5.503151 1.302406,6.667354 5.162011,13.601712 11.809246,16.102769 4.770987,1.415828 10.253734,1.581187 14.806139,-0.653875 3.588785,-1.773871 6.336419,-5.343853 6.332014,-9.45952 0.645502,-5.284025 -1.930439,-11.67533 -7.502789,-13.054361 -5.16583,-1.698971 -12.102209,0.488862 -13.506718,6.231922 -1.371887,4.480795 0.766666,10.496775 5.802587,11.375723 4.006841,1.257321 9.038213,-0.982874 9.419291,-5.501925 0.723984,-3.874316 -3.053807,-8.433104 -7.129537,-6.570007 -4.613121,0.958111 -3.069804,8.659999 1.560167,6.577815 2.571718,-1.955753 -3.383312,-2.93208 0.169898,-3.619168 4.638312,1.290371 0.756061,8.200282 -3.15002,6.181847 -4.549681,-1.414938 -4.863252,-8.450337 -0.796506,-10.650531 3.440108,-2.391632 8.602584,-1.203469 10.549636,2.560081 3.068861,4.495314 1.064062,11.985525 -4.584303,13.208783 -5.065405,1.666175 -11.565899,-0.180252 -13.74482,-5.380072 -2.641227,-4.966754 -1.146461,-11.759871 3.688695,-14.811715 4.667215,-3.459057 11.505162,-3.183634 16.194406,0.04711 3.539718,2.901904 6.062146,7.374379 5.802181,12.052523 0.345971,5.557607 -3.553843,10.611288 -8.223297,13.195249 -3.076936,1.142443 -6.402585,2.149963 -9.720627,1.703993 z M 48.195786,43.837169 C 52.411144,41.604517 56.629193,38.804554 58.79032,34.391861 61.314564,30.470474 62.573063,25.688022 61.467374,21.07731 60.827617,15.858787 57.600561,10.854486 52.536785,8.9983448 46.400157,5.8157377 37.54882,9.022456 35.418934,15.742226 c -1.344815,5.130818 0.190526,11.445042 5.148347,14.082523 3.262275,2.227943 7.521859,1.57463 10.633171,-0.594605 3.724514,-2.030138 4.274793,-6.789721 3.089563,-10.475462 -1.526548,-5.208364 -10.038432,-6.709386 -12.78255,-1.817558 -1.689329,2.858284 -0.881594,7.848814 2.965614,8.3237 3.576226,1.222051 7.377052,-4.90792 2.907009,-6.186704 -2.10345,-1.014148 -2.792893,1.791574 -1.243614,2.647505 -4.969762,0.165584 -0.601149,-6.672797 2.658997,-4.300419 3.90043,1.587756 3.416273,7.839991 -0.253307,9.480773 -3.573802,1.837134 -8.704322,0.152227 -9.814508,-3.88971 -2.698846,-5.788655 3.340736,-12.441393 9.330175,-11.608548 4.379563,0.477973 8.551018,3.687398 9.223591,8.207632 1.261331,4.852526 -1.204112,10.60951 -6.034376,12.427286 -4.275997,2.249804 -9.655629,1.705933 -13.408254,-1.338058 -4.44896,-2.736955 -5.840602,-8.559679 -5.352249,-13.470271 1.09584,-5.92307 6.234766,-11.0761904 12.39219,-11.3954825 7.14552,-1.0547826 15.04247,2.8230923 17.600486,9.7959355 2.438549,5.95459 1.972339,13.105971 -1.479277,18.588965 -2.70385,4.520381 -7.10914,8.062657 -12.146498,9.603446 l -0.583958,0.117405 -0.07371,-0.10342 z M 15.293692,34.774309 C 8.8552225,35.00563 2.1861088,30.829087 0.62409504,24.372915 -0.77281167,19.114893 0.272919,13.015849 3.7555154,8.7625082 8.0710659,3.9492295 14.300056,0.45702208 20.930498,1.0214373 26.140391,1.3714527 31.544533,3.4137944 34.93064,7.4750596 31.518694,5.4752563 27.873925,3.4141053 23.831236,2.9973632 16.867697,1.4725342 9.3568367,5.0234061 5.2815874,10.68996 2.0991427,15.42546 1.6926327,22.151026 4.6437488,27.085799 c 3.9124129,5.9233 13.1264522,7.440783 18.4385832,2.53909 4.513497,-4.178744 4.95976,-12.694104 -0.298795,-16.447396 -3.293325,-1.707638 -8.018546,-2.546995 -10.930471,0.342263 -3.520385,3.014684 -4.3595126,9.495914 -0.09355,12.25679 3.117089,2.42382 8.110679,0.838554 8.95578,-3.092203 1.510345,-3.709506 -4.247848,-7.734492 -6.347629,-3.656029 -1.526916,2.200487 1.8937,4.042115 2.698615,1.928915 0.100043,4.807664 -6.998408,0.900251 -4.89552,-2.45695 1.37748,-4.293531 7.800357,-4.030984 10.090754,-0.677689 2.939226,4.246442 -0.552806,10.958507 -5.690198,11.123711 C 13.105642,29.492433 9.5751088,27.98316 7.7282311,24.963314 4.5496871,19.832643 7.0369002,12.295037 12.684957,10.093473 17.909748,7.73672 25.055331,9.5359308 27.598813,14.94951 c 3.008951,5.337435 1.498819,12.657465 -3.256525,16.489373 -2.422142,2.229183 -5.731856,3.587975 -9.048596,3.335426 z"
       id="path40334" /></g></svg>
