<?xml version="1.0" encoding="UTF-8" standalone="no"?>
<!-- Created with Inkscape (http://www.inkscape.org/) -->

<svg
   viewBox="0 0 64 64"
   version="1.1"
   id="SVGRoot"
   xml:space="preserve"
   xmlns="http://www.w3.org/2000/svg"
   xmlns:svg="http://www.w3.org/2000/svg"><defs
     id="defs22132" /><g
     id="layer1"><circle
       style="fill:#7b4d4d;fill-opacity:1;stroke:none;stroke-width:4"
       id="path184"
       r="32"
       cy="32"
       cx="32" /><path
       id="path5334"
       style="fill:#edf2f4;fill-opacity:1;stroke-width:0.0987714"
       d="m 22.445312,5.3730469 c -1.530706,-0.017642 -2.962764,0.2437413 -4.044921,1.6796875 -2.237467,0.5914024 -2.428958,2.8980947 -0.01758,3.3320316 2.563802,-1.1956607 5.179923,-1.3749496 8.083985,-1.0039066 1.280997,0.1421557 2.627279,2.3246346 0.488281,0.9355466 -2.764806,-1.375983 -5.167849,2.180465 -7.847656,2.824219 -1.904568,0.5672 -1.604067,3.257264 -2.558594,4.792969 0.08831,1.968588 4.041869,0.466216 4.353516,-1.253906 1.45453,-0.867757 4.093189,-2.004425 5.974609,-1.533204 1.985644,0.117682 1.676038,1.164834 1.292969,2.671875 1.227939,2.067889 2.969176,-1.55094 3.822266,-0.279297 2.482067,0.687451 -0.625148,5.044105 2.761718,4.220704 1.171269,-2.119857 2.54382,0.08659 2.94336,1.583984 0.207569,2.301916 -1.896496,4.618198 -4.152344,4.945312 -1.847928,0.807875 -5.716924,2.815134 -4.134766,5.146485 2.196408,-0.826099 5.348843,-0.005 7.119141,-1.783203 1.869198,-2.044786 4.965434,-1.331946 6.888672,-3.16211 2.819267,-0.625205 5.949625,-0.578434 8.320312,-2.466796 2.510578,0.821653 4.867176,2.063151 7.189453,3.308593 1.741588,0.847242 3.422759,1.795287 5.072266,2.796875 V 20.548828 C 62.462962,19.902873 60.923747,19.260081 59.380859,18.628906 57.120862,16.508345 53.981031,17.34345 51.533203,15.742188 48.508096,15.235244 45.467386,14.704922 42.412109,14.386719 39.876802,13.738405 37.667348,12.11694 35.5,10.785156 34.329911,9.2313526 33.088028,6.995804 30.96875,7.1894531 29.766521,5.0582748 27.288172,5.4870878 25.251953,5.5117188 24.316817,5.4954287 23.363736,5.3836323 22.445312,5.3730469 Z" /><path
       id="path5348"
       style="fill:#edf2f4;fill-opacity:1;stroke-width:0.0873662"
       d="m 20.345703,28.246094 c -1.118063,0.09762 -1.850874,1.301551 -0.291015,2.18164 2.084226,1.145392 4.305648,2.43726 5.003906,4.652344 0.856853,1.992453 -0.809826,0.02435 -1.513672,-0.43164 -2.553897,-1.272907 -5.385868,-2.078359 -8.128906,-3.007813 -3.689035,-0.551778 -1.350322,3.728546 1.183593,3.488281 2.441912,0.816048 5.289539,1.949062 6.59375,4.125 0.439883,1.86333 -3.528934,-0.0091 -4.734375,-0.164062 -2.666841,-0.327671 -5.066732,-1.983313 -7.796875,-1.767578 -3.1342744,2.043475 1.673679,3.274952 3.492188,3.726562 2.327821,0.854936 4.6091,1.654356 7.099609,2.064453 3.002816,0.557337 0.0293,1.842394 -1.49414,1.669922 -1.262893,0.297753 -2.300161,0.815089 -3.63086,0.400391 -2.156707,0.122316 -5.231252,-1.439691 -6.8046872,0.308594 -0.8341898,2.513677 3.4297172,2.248902 5.2500002,2.652343 2.289806,0.395153 4.461763,0.938094 6.71875,0.09375 2.025308,-0.711749 4.286845,0.519668 5.675781,1.777344 1.013822,1.135514 -0.749597,2.762904 -1.976562,3.294922 -1.93466,0.87566 -5.352785,0.700874 -5.783204,3.117187 0.890611,1.484443 3.98082,0.170108 5.75586,0.832032 2.290372,-0.715096 4.248068,-2.431981 6.792968,-3.021485 1.809124,-1.626298 4.535447,-1.907053 6.69336,-3.128906 1.756987,-1.919695 4.802407,0.351526 7.183594,0.01367 C 51.74386,52.205152 57.896752,53.110188 64,54.21875 V 42.121094 c -5.230611,-0.224233 -10.437128,-0.782606 -15.607422,-1.507813 -2.373654,-0.387314 -4.621386,-1.539049 -7.082031,-0.943359 -2.27257,-1.129972 -4.330953,-2.75095 -7.070313,-3.070313 -2.930887,-0.178017 -4.652365,-2.247205 -6.36914,-4.041015 -1.986518,-1.20669 -3.649413,-2.815924 -5.941406,-3.625 -0.488008,-0.546149 -1.075774,-0.731873 -1.583985,-0.6875 z" /></g></svg>
