<?xml version="1.0" encoding="UTF-8" standalone="no"?>
<!-- Created with Inkscape (http://www.inkscape.org/) -->

<svg
   viewBox="0 0 63.978889 63.558727"
   version="1.1"
   id="SVGRoot"
   xml:space="preserve"
   xmlns="http://www.w3.org/2000/svg"
   xmlns:svg="http://www.w3.org/2000/svg"><defs
     id="defs22132" /><g
     id="layer1"
     transform="translate(-0.01909543,-0.04777374)"><path
       style="stroke-width:0.133303"
       d="M 4.206729,63.532229 C 0.03838835,63.104036 -0.12307787,58.033968 0.23051624,54.825362 -0.0048721,51.561486 -0.36709842,48.140262 1.2060016,45.122704 2.9905748,40.819137 4.362893,36.367031 5.8961269,31.977496 7.5170156,28.487977 8.2143033,24.701414 9.7200043,21.166364 11.792565,15.74347 13.312037,10.099527 15.676462,4.7991727 17.158389,0.9274604 21.491804,0.02370244 25.188199,0.27365 28.984598,0.05569108 32.84867,-0.08278445 36.618955,0.2331772 c 3.102337,0.1545055 6.52918,-0.63850585 9.179118,1.4878146 2.793639,1.865991 3.352762,5.4684364 4.584317,8.3677732 2.247808,7.429967 5.169413,14.61491 7.585946,21.985842 1.612052,5.203077 3.851617,10.167377 5.406392,15.391077 0.33917,4.148005 0.87754,8.335666 0.486727,12.492763 -1.26118,4.370676 -6.655831,3.500169 -10.163476,3.518443 -5.70062,0.01144 -11.402097,0.07025 -17.10198,-0.05291 -3.818243,-1.490879 -1.737507,-6.509471 -2.204671,-9.618785 -0.606615,-3.050242 -1.025793,-8.667436 3.521277,-8.267421 4.869688,-0.301808 9.759243,-0.09226 14.631499,-0.106913 3.017854,-0.286521 2.704294,3.514775 -0.264345,2.935547 -3.795745,-0.316117 -7.56605,0.184049 -11.324187,-0.05177 -3.436728,-1.881966 -6.222595,3.451656 -2.411916,4.673642 5.292652,-0.241344 10.644231,-0.279515 15.956751,-0.402089 2.927856,-0.38593 3.481318,3.831717 0.146229,3.233821 -5.625961,0.100677 -11.282304,-0.276813 -16.902827,0.310465 -2.442083,2.805337 1.189927,6.000414 4.122886,4.562713 6.035843,-0.01718 12.075594,-0.0652 18.102195,-0.4301 2.62101,-2.580937 0.432143,-6.561632 0.931893,-9.761233 C 60.017366,43.33869 56.461728,36.89902 54.474932,30.026609 53.143725,26.49472 51.686624,23.018043 50.699807,19.36384 48.677696,14.546402 47.96775,9.0334072 44.742123,4.8009396 42.640776,2.1326473 39.190384,3.247648 36.30774,2.9649838 31.552131,2.6339183 26.782837,2.8491421 22.039819,3.1903497 c -4.563367,0.4254261 -5.247116,5.6225936 -6.281541,9.1424343 -2.042714,5.14914 -3.363575,10.563436 -5.3766,15.73168 -2.2704513,7.185055 -5.6117429,14.015626 -7.3616555,21.359811 0.3223916,3.445155 -0.8542374,7.351549 0.7610545,10.518576 3.057283,1.753371 7.046775,0.29986 10.468617,0.944158 4.039879,-0.109434 8.163704,0.311577 12.137413,-0.530426 2.487492,-2.383936 -0.587418,-6.053971 -3.51975,-4.408104 -4.79591,0.07714 -9.62016,-0.133866 -14.38842,0.418668 -3.0553162,-0.723037 -0.7156524,-4.445365 1.778833,-3.34806 4.78812,-0.50398 9.588845,-0.105148 14.379069,-0.210974 4.376751,0.08732 1.998842,-6.170943 -1.44432,-4.193515 -4.005275,-0.190919 -8.01215,0.261132 -12.005188,0.270814 -3.3270411,-0.362795 -0.546609,-4.139179 1.822494,-3.078268 4.354246,-0.01431 8.70128,-0.0728 13.05335,-0.230373 4.110066,-0.758293 4.240104,4.301366 3.808034,7.116207 -0.278783,3.302643 1.27312,7.506366 -0.742095,10.21173 -3.519475,1.327436 -7.358107,0.298845 -11.019276,0.639616 -4.634334,0.007 -9.2690748,0.06682 -13.903109,-0.0121 z M 30.800749,40.852702 C 25.691647,39.804546 20.968103,36.487634 18.387837,31.948955 15.61772,26.571122 15.815185,19.50326 19.783881,14.744218 c 2.49369,-3.328273 6.044503,-6.0196841 10.294171,-6.4190172 4.625498,-0.6468313 9.666741,0.4960581 12.863241,4.0995272 4.210425,3.883142 5.658237,10.571558 2.727725,15.634839 -2.573067,4.985058 -8.599335,7.653585 -14.027433,6.263949 -4.960878,-1.060653 -8.700292,-6.144064 -7.996606,-11.227728 -0.142133,-3.857953 3.156418,-7.355801 6.708044,-8.358891 5.046682,-1.284866 11.18868,3.499719 9.639721,8.8886 -0.880355,3.85409 -6.66655,6.036182 -9.23021,2.570271 -3.237972,-2.677074 3.023199,-6.786486 2.734185,-3.585626 -4.150146,-0.187398 0.535802,5.751271 2.551354,2.39742 3.27232,-2.773431 -0.231243,-8.850979 -4.308337,-7.724327 -5.18088,0.900518 -7.247434,8.249307 -3.393517,11.786612 3.655425,4.996835 12.28435,3.143586 14.636297,-2.246307 2.297234,-3.88106 1.20701,-8.828165 -1.710173,-12.058888 -4.038557,-5.5579953 -12.797661,-4.717786 -17.414692,-0.366209 -3.003129,3.126215 -5.535497,7.58601 -4.284292,12.040079 0.525968,4.276085 2.917291,8.341449 6.83447,10.309593 3.480239,2.092565 7.69821,2.614064 11.616379,1.60928 2.581214,-0.384362 4.611453,-2.165303 6.885021,-3.157735 -1.315833,3.043286 -5.057701,4.644078 -8.233885,5.278725 -1.940598,0.207588 -3.926764,0.48084 -5.874595,0.374317 z"
       id="path36360" /></g></svg>
