<?xml version="1.0" encoding="UTF-8" standalone="no"?>
<!-- Created with Inkscape (http://www.inkscape.org/) -->

<svg
   viewBox="0 0 64 55.3125"
   version="1.1"
   id="SVGRoot"
   xmlns="http://www.w3.org/2000/svg"
   xmlns:svg="http://www.w3.org/2000/svg">
  <defs
     id="defs19013" />
  <g
     id="layer1"
     transform="translate(2.2292632e-8,-1)">
    <path
       id="path20291"
       style="fill-opacity:1;stroke-width:0.753969"
       d="M 32,19.556641 A 32,18.37822 0 0 0 0,37.933594 32,18.37822 0 0 0 32,56.3125 32,18.37822 0 0 0 64,37.933594 32,18.37822 0 0 0 32,19.556641 Z M 32,26 A 12,12 0 0 1 44,38 12,12 0 0 1 32,50 12,12 0 0 1 20,38 12,12 0 0 1 32,26 Z" />
    <rect
       style="fill-opacity:1;stroke-width:0.5"
       id="rect20920"
       width="6"
       height="16"
       x="29"
       y="1" />
    <path
       style="fill-opacity:1;stroke-width:0.5"
       id="rect22064"
       width="6"
       height="16"
       x="46.598827"
       y="1.2378219"
       class="UnoptimicedTransforms"
       d="m 46.598827,1.2378219 h 6 V 17.237822 h -6 z m -33.348936,9.1928871 -5.15255,3.074285 8.198093,13.740133 5.15255,-3.074285 z"
       transform="rotate(15.411273,41.435759,12.087335)" />
  </g>
</svg>
