<?xml version="1.0" encoding="UTF-8" standalone="no"?>
<!-- Created with Inkscape (http://www.inkscape.org/) -->

<svg
   viewBox="0 0 54.268806 63.999878"
   version="1.1"
   id="SVGRoot"
   xml:space="preserve"
   xmlns="http://www.w3.org/2000/svg"
   xmlns:svg="http://www.w3.org/2000/svg"><defs
     id="defs22132" /><g
     id="layer1"
     transform="translate(-4.75)"><path
       style="stroke-width:0.12325"
       d="m 28.654956,63.944671 c -2.67349,-0.21438 -5.34401,-0.75328 -7.74331,-2.04062 -2.82425,-1.15896 -4.69801,-3.71006 -6.90843,-5.61155 -4.4485299,-0.28888 -9.0436599,-3.836129 -9.1749099,-8.532789 -0.41018,-3.00912 0.86126,-5.99772 2.1785,-8.6341 1.20227,-2.98933 1.98557,-6.395111 0.74734,-9.516721 0.14727,-1.95775 -3.4309,-4.1303 -2.72347,-5.02944 3.71315,-0.16887 7.0363299,1.6497 10.0086999,3.66224 2.21703,2.21322 4.13149,5.106031 3.9745,8.396481 0.3231,1.67906 -0.91394,2.55549 -0.86849,0.3889 -0.55251,-2.74941 -1.92086,-5.485201 -4.17431,-7.207571 -1.37961,-0.91172 -4.3820799,-3.15141 -5.3110299,-2.6448 2.1731399,2.82034 1.5969499,6.584081 1.24395,9.874581 -1.02707,3.95917 -3.64116,7.94934 -2.16556,12.17523 0.78623,2.55517 2.9962699,5.200529 5.7112099,5.406719 -0.76646,-2.730489 -1.51287,-5.563249 -1.22403,-8.445229 -0.0222,-3.11285 1.93708,-5.88528 1.44688,-9.04762 0.51249,-1.14409 -1.84195,-6.329051 0.22725,-3.54139 1.46074,2.77793 1.08217,5.99024 0.91652,9.00179 -1.33755,3.65731 -0.50135,7.6636 0.94981,11.141129 1.7093,2.30787 3.53658,4.71217 6.2062,5.90081 2.75813,1.72723 6.12719,2.31221 9.34201,2.31848 3.39899,-0.31157 6.89153,-0.686 9.94132,-2.35029 3.04047,-0.77362 5.3255,-3.14985 6.92753,-5.75109 1.64756,-4.042329 2.57948,-8.606729 1.55602,-12.937079 -0.97921,-3.62323 -3.89495,-6.55175 -4.03381,-10.456481 -0.0866,-1.65517 -0.18134,-4.20015 1.17488,-5.11263 -0.66428,2.90619 -0.13335,5.92303 1.34176,8.508211 2.02638,3.31179 3.76052,6.96699 3.58817,10.95166 0.35673,2.1597 -0.91883,5.31714 -0.37348,6.83848 3.5937,-1.92897 5.86745,-6.25551 4.78941,-10.29619 -0.40384,-2.99559 -2.22935,-5.47075 -4.02328,-7.78218 -1.47973,-2.144791 -2.23223,-4.738481 -2.4413,-7.336321 -0.2371,-1.94943 0.55686,-5.12446 0.41829,-6.18482 -3.76505,1.57349 -7.24552,4.83011 -7.95478,8.97112 0.36668,1.67585 -0.94188,2.29428 -0.80607,0.1919 -0.38461,-2.83985 0.7882,-5.67054 2.84434,-7.58734 2.14343,-2.27029 5.03382,-3.76861 7.95482,-4.7952 1.3136,-0.42494 4.42065,-1.27419 2.10732,0.78082 -2.0089,1.91317 -3.09301,4.55967 -2.7708,7.34567 0.14471,3.69106 1.98888,7.01724 4.30532,9.805281 1.50664,2.44503 3.37626,5.07055 3.13823,8.08191 -0.17794,2.66824 -0.57683,5.38549 -2.54097,7.37125 -1.82996,2.39114 -5.65349,2.42734 -6.7715,5.338619 -1.95449,3.32039 -5.29128,5.70785 -8.97898,6.75439 -2.90816,1.12246 -6.08651,1.61788 -9.21588,1.66535 -0.94468,0.008 -1.89408,0.0682 -2.83589,-0.0296 z m 0.493,-5.32817 c -3.61219,-0.48647 -6.80852,-2.45866 -9.12049,-5.24072 -1.63355,-2.072539 -2.33944,-4.704369 -2.13597,-7.332959 -0.35701,-3.83856 2.00662,-7.21692 4.83788,-9.54971 1.64508,-2.05666 7.08642,-1.29582 4.56681,-4.783901 -0.68707,-2.65882 -0.87408,-5.70704 0.32577,-8.1726 1.2574,-2.8798 3.27557,-5.29003 5.25343,-7.6929 0.75962,-1.0003 2.44814,-4.16485 1.60996,-1.06452 -1.07939,2.58476 -3.12781,4.54455 -4.3514,7.05385 -1.18032,2.60809 -2.07181,5.49914 -1.15896,8.35705 0.23949,3.098941 2.57977,4.267181 5.33142,4.530471 3.10394,1.09555 5.40581,3.69934 6.62074,6.69519 0.24762,1.65587 0.0738,3.45814 -0.0644,5.14345 -0.78774,3.57433 -3.94805,6.41336 -7.62945,6.60158 -3.55507,0.387239 -7.70784,-1.09449 -9.01536,-4.69082 -1.07857,-3.26897 0.52539,-7.66547 4.10617,-8.4718 2.63196,-0.78361 6.17969,0.37854 6.5818,3.45367 0.99568,3.07586 -2.82386,6.30563 -5.33491,3.81798 -1.39976,-0.8101 0.814,-4.29192 0.70945,-1.55312 2.39516,3.23318 4.24501,-2.76603 1.25561,-3.5515 -2.43328,-1.15392 -5.56029,1.00223 -5.41198,3.65105 -0.5011,3.28033 3.41628,5.41686 6.26784,5.31319 3.38151,0.0256 6.4647,-2.50825 6.52128,-5.99259 0.29071,-3.02644 -1.03341,-6.32494 -4.03414,-7.43325 -2.51526,-1.93079 -5.79344,-1.50935 -8.60884,-0.60368 -2.9626,1.14295 -5.26137,3.80342 -5.91913,6.92921 -0.6818,2.70681 -0.0934,5.64672 1.44575,7.9333 2.78628,4.235659 8.38687,4.869509 12.99583,4.147139 3.50036,-0.45527 6.68786,-2.57198 8.57602,-5.498189 1.26202,-2.59775 1.42343,-5.499 1.17386,-8.34298 -0.20598,-5.05648 -5.00002,-7.91408 -7.83328,-11.531021 -1.50051,-2.23826 -2.44715,-4.92051 -2.16677,-7.64813 -0.36125,-1.80218 1.07492,-3.15851 1.47278,-4.81394 2.23769,-4.17188 2.03926,-9.5894999 -0.88856,-13.3780399 -1.3585,-2.13936 -0.94396,2.73628 -1.7424,3.66581 -1.26441,2.9026399 -3.11786,5.5323199 -5.63933,7.4775599 -2.34772,1.97706 -4.85818,4.01714 -5.86879,7.02117 -1.03158,2.78896 -1.8526,5.94162 -0.63164,8.8197 0.74355,1.0385 1.42633,3.572291 -0.26309,1.497781 -2.23303,-3.076581 -2.37958,-7.147231 -1.12492,-10.632491 1.09051,-2.80351 2.93963,-5.29462 5.3295,-7.13927 1.69436,-1.87003 3.89147,-3.11746 5.10969,-5.40626 1.51491,-2.0895899 2.8025,-4.8307499 2.1575,-7.4186599 -0.61265,-1.22818 -2.297,-3.83573 0.42185,-2.32424999 3.17591,1.61500999 5.04221,5.02776999 6.04632,8.31204999 1.02611,3.0322199 0.58499,6.1705799 -0.63641,9.0794999 -1.57665,2.93822 -2.50781,6.56211 -0.88714,9.68996 1.46737,3.06565 4.26523,5.23512 6.53816,7.676351 2.44899,3.06082 3.38357,7.23761 2.72794,11.08588 -0.36692,3.42999 -1.93218,6.981269 -4.81713,8.996659 -3.34909,3.13438 -8.34043,3.49163 -12.69888,3.31775 z"
       id="path38347" /></g></svg>
