<?xml version="1.0" encoding="UTF-8" standalone="no"?>
<!-- Created with Inkscape (http://www.inkscape.org/) -->

<svg
   viewBox="0 0 64.000023 64.000015"
   version="1.1"
   id="SVGRoot"
   xmlns="http://www.w3.org/2000/svg"
   xmlns:svg="http://www.w3.org/2000/svg">
  <defs
     id="defs22132" />
  <g
     id="layer1"
     transform="translate(-3.2036407e-6,1.8996359e-5)">
    <g
       aria-label="㊋"
       id="text2071"
       style="font-size:65.0159px;fill:none;stroke:#000000;stroke-width:4.57142">
      <path
         d="M 32.000011,34.539673 Q 28.190486,46.730154 14.222226,52.317458 L 12.190479,47.492059 Q 29.460328,41.904755 29.460328,25.396812 V 10.920615 l 4.063493,0.253969 q 1.269842,0.507936 0,1.52381 v 12.698418 q 0,14.476196 18.53969,21.58731 l -2.031746,4.571431 Q 36.317473,46.222217 32.000011,34.539673 Z M 48.507954,22.349191 q -3.555557,7.365083 -5.841272,10.666671 l -3.809525,-2.539683 q 3.301588,-4.317462 6.09524,-11.428576 l 4.063494,2.031747 q 1.015874,0.507936 -0.507937,1.269841 z M 15.2381,32.253957 q 2.539683,-4.825398 2.285715,-12.444449 l 4.57143,1.015873 q 1.52381,0.507937 0,1.269842 0,5.333336 -2.285715,11.682545 z m 44.444462,-0.253968 q 0,-11.936513 -7.873019,-19.809532 -7.873019,-7.873019 -19.809532,-7.873019 -11.936513,0 -19.809532,7.873019 -7.8730189,7.873019 -7.8730189,19.809532 0,11.936513 7.8730189,19.809532 7.873019,7.873019 19.809532,7.873019 11.936513,0 19.809532,-7.873019 7.873019,-7.873019 7.873019,-19.809532 z m 2.031747,0 q 0,12.952386 -8.380956,21.333342 -8.380956,8.380956 -21.333342,8.380956 -12.952386,0 -21.333342,-8.380956 -8.3809557,-8.380956 -8.3809557,-21.333342 0,-12.952386 8.3809557,-21.333342 8.380956,-8.3809559 21.333342,-8.3809559 12.952386,0 21.333342,8.3809559 8.380956,8.380956 8.380956,21.333342 z"
         id="path1702" />
    </g>
  </g>
</svg>
