<?xml version="1.0" encoding="UTF-8" standalone="no"?>
<svg
   version="1.1"
   viewBox="0 0 478.33179 501.66373"
   id="svg53"
   stroke="currentColor"
   fill="none"
   width="24" height="24"
   xmlns="http://www.w3.org/2000/svg"
   xmlns:svg="http://www.w3.org/2000/svg">
  <defs
     id="defs17" />
  <path
     d="m 239.1659,280.002 c 13.926,0 27.277,-5.5312 37.125,-15.379 9.8438,-9.8438 15.375,-23.199 15.375,-37.121 0,-13.926 -5.5312,-27.277 -15.375,-37.125 -9.8477,-9.8438 -23.199,-15.375 -37.125,-15.375 -13.926,0 -27.277,5.5312 -37.125,15.375 -9.8438,9.8477 -15.375,23.199 -15.375,37.125 0.0312,13.914 5.5703,27.25 15.41,37.086 9.8398,9.8398 23.176,15.383 37.09,15.414 z m 0,-93.332 v -0.004 c 10.828,0 21.215,4.3047 28.875,11.961 7.6562,7.6562 11.957,18.043 11.957,28.875 0,10.828 -4.3008,21.215 -11.957,28.871 -7.6602,7.6602 -18.047,11.961 -28.875,11.961 -10.828,0 -21.215,-4.3008 -28.875,-11.961 -7.6562,-7.6562 -11.957,-18.043 -11.957,-28.871 0,-10.832 4.3008,-21.219 11.957,-28.875 7.6602,-7.6562 18.047,-11.961 28.875,-11.961 z"
     id="path19" />
  <path
     d="m 193.7859,314.062 4.8984,-4.7852 c 1.9609,-1.7305 4.7773,-2.1016 7.1172,-0.93359 2.4023,0.84766 4.0625,3.0586 4.1992,5.6016 v 6.8828 c 0,4.6406 1.8438,9.0938 5.125,12.375 3.2852,3.2812 7.7344,5.125 12.375,5.125 h 23.336 c 4.6406,0 9.0898,-1.8438 12.375,-5.125 3.2812,-3.2812 5.125,-7.7344 5.125,-12.375 v -6.8828 c 0.16016,-2.6367 1.918,-4.9062 4.4336,-5.7188 2.2969,-1.0625 5.0078,-0.64844 6.8828,1.0508 l 4.8984,4.7852 c 3.2656,3.3047 7.7188,5.1641 12.367,5.1641 4.6482,0 9.1016,-1.8594 12.367,-5.1641 l 16.449,-16.566 c 3.3047,-3.2656 5.168,-7.7227 5.168,-12.367 0,-4.6484 -1.8633,-9.1016 -5.168,-12.367 l -4.8984,-4.7852 c -1.7344,-1.957 -2.1016,-4.7734 -0.93359,-7.1133 0.84375,-2.4062 3.0547,-4.0625 5.5977,-4.2031 h 7 c 4.6445,0 9.0938,-1.8438 12.375,-5.125 3.2812,-3.2812 5.125,-7.7305 5.125,-12.375 v -23.332 c 0,-4.6406 -1.8438,-9.0938 -5.125,-12.375 -3.2812,-3.2812 -7.7305,-5.125 -12.375,-5.125 h -6.8828 c -2.6133,-0.28516 -4.8594,-1.9883 -5.8359,-4.4336 -0.97656,-2.4414 -0.52734,-5.2227 1.1719,-7.2344 l 4.7852,-4.7852 -0.004,0.004 c 3.3047,-3.2656 5.168,-7.7188 5.168,-12.367 0,-4.6484 -1.8633,-9.1016 -5.168,-12.367 l -16.566,-16.332 c -3.2812,-3.2773 -7.7305,-5.1172 -12.367,-5.1172 -4.6367,0 -9.0859,1.8398 -12.367,5.1172 l -4.8984,4.7852 v -0.004 c -1.9609,1.7344 -4.7773,2.1016 -7.1172,0.93359 -2.4023,-0.84375 -4.0625,-3.0547 -4.1992,-5.5977 v -6.7695 c 0,-4.6211 -1.8281,-9.0547 -5.0859,-12.332 -3.2539,-3.2773 -7.6758,-5.1367 -12.297,-5.168 h -23.336 c -4.6406,0 -9.0898,1.8438 -12.375,5.125 -3.2812,3.2852 -5.125,7.7344 -5.125,12.375 v 6.8828 c -0.16016,2.6367 -1.918,4.9062 -4.4336,5.7188 -2.2969,1.0664 -5.0078,0.65234 -6.8828,-1.0508 l -4.8984,-4.8984 c -3.2812,-3.2773 -7.7305,-5.1172 -12.367,-5.1172 -4.6365,0 -9.0859,1.8398 -12.367,5.1172 l -16.449,16.684 c -3.3047,3.2656 -5.168,7.7188 -5.168,12.367 0,4.6445 1.8633,9.0977 5.168,12.363 l 4.7852,4.7852 h -0.004 c 1.7266,2.0117 2.0938,4.8516 0.93359,7.2344 -0.84375,2.4023 -3.0547,4.0586 -5.5977,4.1992 h -6.8828 c -4.6211,0 -9.0547,1.8281 -12.336,5.082 -3.2773,3.2578 -5.1328,7.6797 -5.1641,12.301 v 23.332 c 0,4.6445 1.8438,9.0938 5.125,12.375 3.2812,3.2812 7.7305,5.125 12.375,5.125 h 6.8828 c 2.6367,0.16016 4.9062,1.9219 5.7148,4.4336 1.0664,2.2969 0.65234,5.0078 -1.0508,6.8828 l -4.7852,4.8984 0.004,0.004 c -3.3047,3.2656 -5.168,7.7188 -5.168,12.367 0,4.6445 1.8633,9.0977 5.168,12.367 l 16.566,16.449 c 3.2617,3.2695 7.6914,5.1055 12.309,5.1055 4.6172,0 9.0469,-1.8359 12.309,-5.1055 z m -33.016,-32.902 4.8984,-4.8984 c 3.2188,-3.5117 4.9766,-8.1211 4.9062,-12.887 -0.0664,-4.7617 -1.9531,-9.3203 -5.2734,-12.738 -3.3203,-3.418 -7.8242,-5.4375 -12.582,-5.6406 h -6.8828 c -3.2227,0 -5.8359,-2.6133 -5.8359,-5.8359 v -23.332 c 0,-3.2227 2.6133,-5.832 5.8359,-5.832 h 6.8828 c 4.7578,-0.20703 9.2617,-2.2266 12.582,-5.6445 3.3203,-3.4141 5.207,-7.9727 5.2734,-12.738 0.0703,-4.7656 -1.6875,-9.375 -4.9062,-12.887 l -4.8984,-4.8984 c -2.2266,-2.2695 -2.2266,-5.8984 0,-8.168 l 16.566,-16.566 c 2.2656,-2.2227 5.8984,-2.2227 8.1641,0 l 4.9023,4.9023 c 2.5977,2.4648 5.8711,4.1016 9.4023,4.7031 3.5312,0.60156 7.1602,0.14453 10.43,-1.3203 3.375,-1.2109 6.3008,-3.4258 8.3867,-6.3438 2.0859,-2.918 3.2305,-6.4023 3.2812,-9.9922 v -6.8828 c 0,-3.2188 2.6094,-5.832 5.832,-5.832 h 23.332 c 1.5469,0 3.0312,0.61328 4.125,1.707 1.0938,1.09372 1.7109,2.5781 1.7109,4.125 v 6.8828 c 0.20312,4.7617 2.2227,9.2617 5.6406,12.582 3.4179,3.3203 7.9766,5.2109 12.738,5.2773 4.7656,0.0703 9.375,-1.6875 12.887,-4.9062 l 4.8984,-4.8984 v -0.004 c 2.2695,-2.2227 5.8984,-2.2227 8.168,0 l 16.566,16.566 c 2.2227,2.2695 2.2227,5.8984 0,8.168 l -4.8984,4.8984 c -2.4648,2.6016 -4.1016,5.875 -4.707,9.4023 -0.60156,3.5312 -0.14062,7.1641 1.3242,10.434 1.2109,3.375 3.4219,6.3008 6.3398,8.3867 2.918,2.0859 6.4062,3.2266 9.9922,3.2773 h 6.6484 c 1.5469,0 3.0312,0.61719 4.125,1.7109 1.0938,1.09371 1.7109,2.5781 1.7109,4.125 v 23.332 c 0,1.5469 -0.61719,3.0312 -1.7109,4.125 -1.09371,1.0938 -2.5781,1.707 -4.125,1.707 h -6.8828 c -4.7578,0.20703 -9.2617,2.2266 -12.582,5.6445 -3.3203,3.418 -5.207,7.9727 -5.2734,12.738 -0.0703,4.7656 1.6875,9.375 4.9062,12.887 l 4.8984,4.8984 c 2.2266,2.2695 2.2266,5.8984 0,8.168 L 301,305.8945 c -2.2656,2.2227 -5.8984,2.2227 -8.1641,0 l -4.8984,-4.8984 h -0.004 c -2.5977,-2.4648 -5.8711,-4.1055 -9.4023,-4.707 -3.5312,-0.60156 -7.1602,-0.14063 -10.43,1.3242 -3.375,1.2109 -6.3008,3.4219 -8.3867,6.3398 -2.0859,2.9179 -3.2305,6.4062 -3.2812,9.9922 v 6.8828 c 0,1.5469 -0.61328,3.0312 -1.707,4.125 -1.09372,1.0938 -2.5781,1.707 -4.125,1.707 h -23.102 c -3.2188,0 -5.832,-2.6094 -5.832,-5.832 v -6.8828 c -0.0586,-3.5977 -1.207,-7.0938 -3.2891,-10.031 -2.082,-2.9336 -5,-5.1719 -8.3789,-6.418 -2.3008,-0.9375 -4.75,-1.4531 -7.2305,-1.5195 -4.6289,-0.0391 -9.0781,1.7656 -12.367,5.0195 l -4.8984,4.8984 h -0.004 c -2.2656,2.2227 -5.8984,2.2227 -8.1641,0 l -16.566,-16.566 c -2.2266,-2.2695 -2.2266,-5.8984 0,-8.168 z"
     id="path21" />
  <path
     d="m 332.4959,408.332 h -7.4648 l 7.4648,-54.367 c 35.867,-26.387 58.891,-66.723 63.371,-111.02 4.4766,-44.305 -10.008,-88.43 -39.867,-121.46 -29.859,-33.035001 -72.309,-51.883001 -116.84,-51.883001 -44.531,0 -86.977,18.848 -116.84,51.883001 -29.858996,33.031 -44.343996,77.156 -39.866996,121.46 4.4805,44.301 27.503996,84.637 63.370996,111.02 l 7.6992,54.367 h -7.6992 c -4.6445,0 -9.0938,1.8438 -12.375,5.125 -3.2812,3.2812 -5.125,7.7344 -5.125,12.375 V 437.5 c 0,4.6406 1.8438,9.0898 5.125,12.375 3.2812,3.2812 7.7305,5.125 12.375,5.125 h 18.785 l 4.5469,15.75 c 2.1914,8.832 7.2734,16.672 14.445,22.277 7.168,5.6055 16.004,8.6445 25.105,8.6367 h 62.066 c 9.0977,0.008 17.938,-3.0312 25.105,-8.6367 7.168,-5.6055 12.254,-13.445 14.445,-22.277 L 314.2866,455 h 18.199 c 4.6445,0 9.0938,-1.8438 12.375,-5.125 3.2812,-3.2852 5.125,-7.7344 5.125,-12.375 v -11.668 c 0,-4.6406 -1.8438,-9.0938 -5.125,-12.375 -3.2812,-3.2812 -7.7305,-5.125 -12.375,-5.125 z M 93.335904,227.502 c -0.0781,-50.859 26.347996,-98.082 69.733996,-124.62 43.383,-26.539001 97.461,-28.559001 142.7,-5.328101 45.242,23.227001 75.117,68.348001 78.836,119.070001 3.7188,50.719 -19.254,99.715 -60.625,129.29 -1.3203,0.93359 -2.207,2.3672 -2.4492,3.9688 l -8.2852,58.332 h -148.16 l -8.2852,-58.332 c -0.24219,-1.6016 -1.1289,-3.0352 -2.4492,-3.9688 -38.172,-27.383 -60.870996,-71.438 -61.015996,-118.41 z M 298.4359,467.952 c -1.5625,6.3008 -5.1953,11.898 -10.312,15.895 -5.1172,3.9961 -11.426,6.1641 -17.918,6.1562 h -62.07 c -6.4922,0.008 -12.801,-2.1602 -17.918,-6.1562 -5.1172,-3.9961 -8.75,-9.5938 -10.312,-15.895 l -3.2656,-12.949 h 125.07 z m 39.902,-30.449 c 0,1.5469 -0.61719,3.0312 -1.7109,4.125 -1.09371,1.0938 -2.5781,1.707 -4.125,1.707 h -186.66 c -3.2227,0 -5.8359,-2.6133 -5.8359,-5.832 v -11.668 c 0,-3.2227 2.6133,-5.832 5.8359,-5.832 h 186.66 c 1.5469,0 3.0312,0.61328 4.125,1.707 1.0938,1.09372 1.7109,2.5781 1.7109,4.125 z"
     id="path23" />
  <path
     d="m 239.1659,46.663999 c 1.5469,0 3.0312,-0.61328 4.125,-1.707 1.0938,-1.09372 1.707,-2.5781 1.707,-4.125 V 5.8319995 c 0,-3.2227 -2.6094,-5.8320000391148 -5.832,-5.8320000391148 -3.2226,0 -5.832,2.6094000391148 -5.832,5.8320000391148 V 40.831999 c 0,1.5469 0.61328,3.0312 1.707,4.125 1.09372,1.0938 2.5781,1.707 4.125,1.707 z"
     id="path25" />
  <path
     d="m 94.845904,103.012 c 1.0586,1.1289 2.5352,1.7656 4.082,1.7656 1.546796,0 3.027296,-0.63672 4.085896,-1.7656 1.125,-1.0586 1.7656,-2.5352 1.7656,-4.082001 0,-1.5469 -0.64063,-3.0273 -1.7656,-4.0859 l -24.733996,-24.848 c -2.2891,-2.2891 -5.9961,-2.2891 -8.2852,0 -2.2852,2.2852 -2.2852,5.9961 0,8.2812 z"
     id="path27" />
  <path
     d="M 40.835904,233.332 H 5.8359036 c -3.2227,0 -5.8358999999264,2.6133 -5.8358999999264,5.832 0,3.2227 2.6132999999264,5.8359 5.8358999999264,5.8359 H 40.835904 c 3.2188,0 5.832,-2.6133 5.832,-5.8359 0,-3.2188 -2.6133,-5.832 -5.832,-5.832 z"
     id="path29" />
  <path
     d="m 94.845904,375.312 -24.852,24.73 c -2.2227,2.2695 -2.2227,5.8984 0,8.168 1.1133,1.1172 2.625,1.7461 4.2031,1.75 1.5391,-0.008 3.0117,-0.64062 4.082,-1.75 L 103.013,383.476 c 2.2539,-2.2539 2.2539,-5.9102 0,-8.1641 -2.2578,-2.2578 -5.914096,-2.2578 -8.167996,0 z"
     id="path31" />
  <path
     d="m 383.4859,375.312 c -2.2539,-2.2578 -5.9102,-2.2578 -8.168,0 -2.2539,2.2539 -2.2539,5.9102 0,8.1641 l 24.734,24.734 c 1.0703,1.1094 2.543,1.7422 4.082,1.75 1.5781,-0.004 3.0898,-0.63281 4.2031,-1.75 2.2227,-2.2695 2.2227,-5.8984 0,-8.168 z"
     id="path33" />
  <path
     d="m 472.4959,233.332 h -35 c -3.2188,0 -5.832,2.6133 -5.832,5.832 0,3.2227 2.6133,5.8359 5.832,5.8359 h 35 c 3.2227,0 5.8359,-2.6133 5.8359,-5.8359 0,-3.2188 -2.6133,-5.832 -5.8359,-5.832 z"
     id="path35" />
  <path
     d="m 400.0459,69.999999 -24.734,24.852 v -0.004 c -1.125,1.0586 -1.7656,2.5391 -1.7656,4.0859 0,1.546901 0.64063,3.023401 1.7656,4.082001 1.0586,1.1289 2.5391,1.7656 4.0859,1.7656 1.5468,0 3.0234,-0.63672 4.082,-1.7656 l 24.852,-24.734001 c 2.2852,-2.2852 2.2852,-5.9961 0,-8.281196 -2.2891,-2.2891 -5.9961,-2.2891 -8.2852,0 z"
     id="path37" />
</svg>
