<?xml version="1.0" encoding="UTF-8" standalone="no"?>
<!-- Created with Inkscape (http://www.inkscape.org/) -->

<svg
   viewBox="0 0 63.418373 64.000008"
   version="1.1"
   id="SVGRoot"
   xml:space="preserve"
   xmlns="http://www.w3.org/2000/svg"
   xmlns:svg="http://www.w3.org/2000/svg"><defs
     id="defs22132" /><g
     id="layer1"
     transform="translate(-0.5)"><path
       style="stroke-width:0.231447"
       d="m 27.926857,63.734557 c -2.619929,-0.63258 -4.363645,-3.62345 -2.242526,-5.69342 -0.792178,-2.55462 -4.378296,-3.11839 -6.566351,-3.27664 -1.284754,2.01044 -4.908535,4.13128 -6.894834,1.92895 -2.3708114,-1.62182 -2.7226254,-3.92318 -5.1868004,-5.00859 -1.69301,-2.43656 -0.881015,-5.48464 2.076232,-6.24149 0.638426,-2.11801 -0.583155,-7.09106 -3.27241,-6.74755 -3.841088,1.99955 -6.19117895,-3.47689 -4.749568,-6.09452 -0.92647495,-2.18926 -0.96242595,-6.69794 1.35994,-7.44409 2.646879,0.0586 6.873067,-0.78894 6.308905,-4.22213 1.6945894,-2.42322 -0.56763,-3.69466 -2.283953,-4.64455 -1.540493,-2.82193 0.783449,-5.40022 3.316625,-6.3930203 1.2278604,-1.68805 3.5193564,-4.79286 5.9434844,-3.72453 2.054443,1.44943 4.553613,3.9423203 6.993031,1.48011 1.967263,-0.0962 3.684767,-0.37141 2.833986,-2.79619 -0.63666,-2.89222 0.988947,-5.70000002 4.267983,-4.62079002 3.25766,0.28067 9.320274,-1.57219998 9.462971,3.40455002 -0.164929,2.14341 -0.392672,4.48893 2.484081,4.14812 1.629613,1.27869 4.434559,2.10203 4.770486,-0.59817 1.542766,-0.56506 3.398248,-2.24667 5.332871,-0.50573 2.315124,2.58216 6.188202,4.6765903 7.036447,8.0774203 -0.449642,2.70238 -4.284685,2.71374 -3.908394,5.40419 1.491073,1.85014 1.543373,6.77808 5.38741,4.6172 4.251368,0.16157 3.557766,4.88756 3.323597,7.83877 0.555368,2.38865 0.07145,6.45064 -3.096898,6.38779 -3.21981,-0.80152 -5.115194,2.0439 -5.718284,4.76429 -0.999943,2.43271 3.198705,1.81996 3.215976,4.41476 1.560412,2.49561 -2.965695,5.19189 -4.63353,7.14381 -1.40496,2.255 -4.486645,4.59259 -5.921823,0.88045 -1.964014,-0.79868 -3.422605,-2.22751 -5.369469,-0.53152 -3.908201,0.24094 -2.478419,4.05 -3.204513,6.51097 -1.412137,3.015434 -4.140171,0.70285 -6.472732,1.46181 -1.725432,0.518364 -2.861715,-0.99276 -4.34721,0.345187 z m 8.100651,-6.13335 c 0.28002,-1.0054 -0.658,-3.31329 0.672737,-3.19513 3.475335,0.33538 5.805126,-3.36858 8.86055,-3.08628 1.700321,0.95167 4.466704,6.24113 5.626503,2.34681 1.114321,-1.98446 6.048766,-3.61668 3.031598,-6.05521 -2.215468,-1.18492 -4.239472,-2.51622 -1.759174,-4.68618 0.114291,-2.56167 2.520097,-4.29673 2.447519,-6.81682 1.961816,-1.7094 6.489122,2.57863 5.637523,-1.8171 0.342992,-2.10026 2.425276,-7.69772 -1.705326,-6.5541 -2.714547,0.56582 -5.083528,-0.34833 -5.259959,-3.39083 -1.323888,-2.47974 -3.252997,-6.4446 0.194532,-8.19811 4.186892,-2.47336 -2.182218,-4.97444 -3.570045,-7.1563103 -2.990846,-0.89491 -3.595749,6.6228003 -6.656138,3.1215203 -1.793058,-1.31767 -4.217556,-3.0211403 -6.716933,-2.1145403 -1.644016,-0.49817 -0.470654,-2.72439 -0.803387,-4.03365 -0.275575,-0.80538 0.67216,-2.83407 -0.720163,-2.52271 -2.460163,0 -4.920325,0 -7.380488,0 0,2.16018 0,4.32035 0,6.48053 -3.394115,-1.06328 -6.690868,3.1094103 -9.046246,2.5239403 -1.469164,-1.65276 -4.615187,-5.8088003 -5.864497,-1.76173 -0.988684,2.0258 -5.5951124,2.68458 -2.764548,5.48608 2.047634,0.77009 4.421876,2.40359 2.250762,4.63223 -1.760794,2.6867 -1.138241,7.36601 -5.5846114,7.04654 -3.406898,-1.26448 -3.350146,1.72449 -3.070866,4.1878 -0.444882,2.44322 0.358657,5.7981 3.575105,4.07171 3.6045284,-0.9057 2.563419,4.49674 4.8452874,6.24914 2.817856,2.6062 -0.629042,4.74651 -2.7090194,5.82817 0.398918,2.35605 3.0239994,4.18922 4.3322314,6.32025 2.76008,1.63467 4.833983,-6.72605 7.381457,-2.35857 1.886863,1.60175 4.809985,0.7903 6.689809,2.67672 0.675878,1.77002 -1.599807,6.51184 1.405463,6.01609 2.220108,0 4.440216,0 6.660324,0 0,-1.08008 0,-2.16017 0,-3.24026 z m -4.860391,-8.44782 c -3.527249,-0.5815 -6.966019,-2.24734 -9.576637,-4.68403 -2.608588,-2.38661 -4.196228,-5.36098 -4.965459,-8.78828 -1.076066,-2.80628 -1.196019,-6.18498 0.161731,-8.91275 0.950033,-2.88307 2.69212,-5.7632 5.021602,-7.91144 2.29441,-2.71168 5.671443,-3.64171 9.066705,-3.98469 3.58958,-0.31341 8.012068,-0.18734 10.604826,2.18702 2.220817,1.29672 4.150624,3.14054 5.249891,5.41601 1.954586,2.0679 1.573072,5.09649 2.204616,7.46779 -0.94565,2.17345 -0.725932,5.59402 -2.862272,7.31956 -2.348149,1.38309 -3.891637,4.16841 -6.712629,4.94263 -2.42196,0.68238 -4.848198,1.0199 -7.359704,0.14405 -3.799436,-1.10771 -6.785049,-3.83606 -8.450939,-7.41172 -1.505086,-4.04739 -0.294009,-9.14275 3.548656,-11.46032 1.862368,-3.01836 6.087556,-2.31705 9.013327,-1.72704 1.974969,0.49784 2.385324,2.8308 4.396018,3.75602 1.851302,2.88623 0.990242,6.24841 -1.298112,8.53112 -2.159488,1.33992 -4.774788,2.88488 -7.298686,1.2619 -1.739119,-1.84419 -2.420874,-6.27317 0.561298,-7.32508 2.692649,0.24054 2.110755,2.70635 -0.288166,2.27732 -0.656182,3.39945 6.268595,3.38427 5.440858,-0.45838 0.346648,-3.15472 -2.726866,-5.688 -5.638833,-4.96511 -2.456566,0.92864 -5.662042,2.78621 -4.75202,5.96363 -0.679351,2.81489 0.895228,5.57301 3.278673,7.01108 2.434472,1.69773 5.805244,1.71678 8.494908,0.68341 2.084546,-1.422 4.296924,-3.24372 4.99197,-5.78031 1.520645,-2.26946 0.758696,-4.70037 0.05578,-7.23715 -2.030517,-3.07284 -3.934137,-7.2324 -8.206618,-7.39349 -4.135501,-0.50913 -8.39414,0.76698 -11.700955,3.21904 -2.236645,2.53199 -3.963631,5.74758 -4.418655,9.1264 -0.09303,3.34311 1.004979,6.62466 2.292146,9.63432 1.771641,4.031 6.459065,5.6436 10.501037,6.16527 3.04695,0.18447 6.287124,0.26782 8.951037,-1.45295 1.996501,0.0314 4.055905,-3.89843 5.143337,-1.24031 -1.642907,2.49467 -4.757545,3.40087 -7.247151,4.8191 -2.583002,0.84292 -5.504919,0.16695 -7.891521,1.13662 l -0.310057,-0.32924 z"
       id="path472" /></g></svg>
