<?xml version="1.0" encoding="UTF-8" standalone="no"?>
<!-- Created with Inkscape (http://www.inkscape.org/) -->

<svg
   viewBox="0 0 63.56823 64.013954"
   version="1.1"
   id="SVGRoot"
   xml:space="preserve"
   xmlns="http://www.w3.org/2000/svg"
   xmlns:svg="http://www.w3.org/2000/svg"><defs
     id="defs22132" /><g
     id="layer1"
     transform="translate(-0.17299639,0.01645933)"><path
       style="stroke-width:0.126297"
       d="M 31.447319,63.949279 C 22.393233,63.648106 13.485845,59.543595 7.498282,52.73032 1.8635984,45.965934 -0.65722943,36.856421 0.41433254,28.137949 1.1267612,21.352635 3.8416639,14.591544 8.8805438,9.8593958 16.823826,1.0374822 30.053384,-2.0364219 41.293861,1.2946174 c 6.979816,2.146621 13.365892,6.6633783 17.199075,12.9356576 3.267611,4.524961 5.059446,10.026023 5.151154,15.605505 0.880355,10.994292 -4.268305,22.492785 -13.615014,28.554881 -4.559115,3.31273 -10.119209,4.946292 -15.70446,5.274887 -0.962388,0.03304 -1.912982,0.476079 -2.877297,0.283731 z m 4.672999,-2.657608 C 45.230292,60.025026 53.49106,54.246805 57.908689,46.1874 c 2.136936,-1.910942 0.849415,-4.84073 -2.052397,-3.455233 -5.733392,1.620034 -7.931135,7.763154 -12.194761,11.318564 -2.774664,2.819082 -6.064968,5.251294 -9.771505,6.593175 -1.137092,0.113169 -4.669234,0.92387 -1.516451,0.866478 1.251215,-0.01865 2.502658,-0.08081 3.746743,-0.218713 z m -6.820054,-1.817302 c 6.945959,-1.14994 12.591628,-6.046698 16.702277,-11.523272 2.520565,-3.255226 5.470396,-6.657014 9.786556,-7.315825 3.172055,0.442618 6.381503,-1.255189 5.106703,-4.912279 -2.610781,-2.64315 -7.75443,-0.900482 -10.761568,0.661622 -5.722297,3.667303 -9.277519,9.679044 -14.527804,13.878148 -4.223369,3.11583 -9.438263,5.022569 -14.719923,4.924239 -2.282838,1.070138 -6.748342,-1.186398 -7.588568,-0.313943 3.86626,3.763997 9.63584,5.002622 14.883945,4.770249 L 28.7423,59.572152 Z M 22.48022,52.58549 c 4.694474,-0.343549 9.378674,-2.040299 12.711292,-5.45154 5.296814,-4.37529 8.915513,-10.783721 15.240482,-13.859769 3.47043,-1.444049 7.355852,-1.455231 11.013845,-0.836707 1.096597,-3.536237 -1.597352,-7.17799 -5.423813,-5.877531 -6.331967,-0.293087 -11.866931,3.516005 -15.903458,8.052054 -3.415297,3.707143 -6.87277,7.566484 -11.514525,9.765352 -5.529877,2.779844 -12.157302,3.856099 -18.167917,2.133353 -1.7115016,0.119654 -6.0565299,-4.255808 -4.8744648,-0.651976 2.6471269,5.394994 9.1213348,7.204683 14.7094378,6.858881 0.737449,-0.02281 1.47407,-0.06896 2.209121,-0.132117 z m -1.957606,-8.152634 c 4.502797,-0.733652 8.661955,-3.074053 12.146477,-5.935175 4.428296,-3.976103 8.027105,-9.068585 13.364314,-11.907186 3.08112,-1.432008 6.481555,-2.184577 9.829033,-2.54383 1.948048,0.547721 6.087311,1.088695 3.782796,-2.181453 -1.383262,-3.614481 -3.462246,-7.314919 -6.249782,-9.885742 0.308668,3.409856 -0.03312,7.771712 -3.317171,9.979545 -2.411548,2.937889 -7.014055,0.808051 -9.373256,1.75694 -1.691796,5.202661 -8.119104,8.101488 -13.187644,6.179532 -0.784879,3.125306 -1.942732,6.331818 -4.880847,8.026127 C 18.039495,41.810388 10.176597,40.955405 7.0016933,35.655964 3.838011,31.334516 5.6462421,24.099516 10.871057,22.39813 c 3.97757,-1.613992 9.178401,0.478385 10.207449,4.809245 1.241942,3.546505 -1.430342,8.17459 -5.474787,7.734608 -4.120657,0.413295 -6.2345551,-6.44414 -1.659874,-7.282126 2.75459,-1.418619 2.970047,4.923455 1.176654,2.362643 -0.754401,-2.104858 -3.07632,1.104692 -1.096566,2.162851 2.846713,3.035616 6.704771,-2.549122 4.39655,-5.211075 C 16.564675,23.72001 11.525429,23.531661 9.3559345,26.561283 5.5622833,30.974095 10.123968,38.532834 15.699839,37.983129 20.344456,37.957075 25.356987,34.22488 24.93632,29.2118 24.572553,24.239374 21.764465,18.569842 16.436558,17.525874 12.469954,16.736915 8.1266108,17.791812 5.1082434,20.523329 2.4205154,25.494698 1.9057972,31.528978 3.0934312,36.995585 c 1.9334364,5.197547 7.8382378,7.936043 13.1456978,7.818715 1.436799,0.04654 2.873927,-0.110149 4.283485,-0.381444 z M 32.855057,27.873678 C 38.20176,27.006939 40.476877,20.399582 38.363099,15.827191 36.234538,10.704019 30.54826,7.850366 25.249061,7.4166158 18.972304,6.8444975 12.182319,9.0559323 8.1904954,14.077785 c -2.4267681,3.520528 2.6982796,0.204461 4.5880556,0.702406 3.041751,-0.09064 6.35707,0.386065 8.808582,2.27905 2.951509,-0.533008 4.473867,-4.73483 8.179752,-3.927739 4.00061,-0.03463 7.642055,3.93067 6.589415,7.955163 -0.208975,3.965344 -5.507278,5.9665 -8.117615,2.901361 -3.09003,-2.382405 2.166135,-8.222515 3.330384,-3.766851 0.08575,2.188976 -2.589135,-1.616027 -2.54773,1.314685 1.735091,4.794225 7.356561,-0.03529 4.781428,-3.448199 -1.754032,-3.902972 -7.928427,-2.776885 -8.941657,1.092389 0.201539,2.553251 1.836877,5.217594 2.554949,7.752995 1.438164,1.390061 3.624925,1.148298 5.438998,0.940633 z m 13.645065,-6.43298 C 50.797396,20.72935 52.582277,15.583627 51.188999,11.831722 49.203219,6.6666326 43.436792,4.5020406 38.486391,3.2256829 32.473469,1.7450367 26.088025,2.3320786 20.358595,4.6160283 c -3.264798,1.3770546 2.369116,0.5351924 3.38791,0.6148643 5.487303,-0.1914354 11.044831,1.927587 14.725234,6.0592044 2.788996,-3.4294054 9.775817,-2.7833395 10.712385,1.949198 1.464249,3.511882 -2.981452,8.332185 -5.992418,4.968182 -2.364245,-2.00249 1.513734,-5.891352 2.415929,-2.855803 -3.841498,-0.138691 -0.52548,4.05387 1.290867,1.661398 3.093454,-3.814492 -3.046201,-7.9041817 -5.976241,-4.674023 -1.530012,2.548849 0.09459,5.957351 1.344698,8.384949 1.114538,1.185386 2.790562,1.036613 4.233163,0.7167 z"
       id="path31823" /></g></svg>
