<?xml version="1.0" encoding="UTF-8" standalone="no"?>
<!-- Created with Inkscape (http://www.inkscape.org/) -->

<svg
   viewBox="0 0 58.940243 63.999996"
   version="1.1"
   id="SVGRoot"
   xml:space="preserve"
   xmlns="http://www.w3.org/2000/svg"
   xmlns:svg="http://www.w3.org/2000/svg"><defs
     id="defs22132" /><g
     id="layer1"
     transform="translate(-2.5)"><path
       style="stroke-width:0.229543"
       d="m 21.596011,63.523583 c -3.787567,0.10867 -1.45117,-3.29126 0.362791,-4.37191 2.989065,-3.00484 6.104268,-5.91278 8.955227,-9.03397 1.279371,-3.21075 4.684195,-3.80099 6.300805,-6.64606 2.646559,-2.68861 4.054123,-6.60939 3.658364,-10.35844 -0.614928,-2.95545 -1.162756,-6.28519 -3.900192,-8.07601 -2.529997,-3.03834 -6.087056,-5.73044 -10.25664,-5.30599 -3.732937,0.0133 -7.885655,1.34271 -9.825988,4.77006 -2.705585,2.16774 -4.310533,6.47186 -3.591761,9.71358 0.422333,3.34147 1.86305,6.6585 4.883001,8.43369 3.421249,2.13271 7.926671,2.59525 11.453219,0.43812 4.635757,-2.91551 5.685643,-10.3407 1.907284,-14.37706 -2.606156,-1.02308 -5.935086,-2.96186 -8.643303,-1.09793 -3.050111,1.71033 -4.841381,6.19364 -2.253711,9.05163 1.85488,2.53643 7.103208,1.24383 6.999644,-2.08092 0.386656,-2.07297 -3.536432,-4.47561 -2.839986,-1.09775 -0.452385,4.17066 -4.389601,-2.2824 -0.817349,-2.78458 2.6527,-2.67487 7.283913,0.46804 6.694947,3.92746 0.599857,3.43804 -2.354187,5.9058 -5.41509,6.54981 -3.255392,0.58063 -6.697097,-1.58437 -8.10437,-4.47583 -1.947994,-3.13354 -0.708861,-6.82159 1.254801,-9.61034 1.979343,-3.08178 6.15585,-3.61183 9.534378,-3.51042 3.252379,0.213 5.98983,2.69144 7.730076,5.24759 2.13659,3.79042 2.814389,8.84619 -0.01486,12.48916 -1.781653,3.57365 -5.178765,6.44487 -9.319871,6.54835 -4.351222,0.28884 -8.869235,-0.97538 -12.171825,-3.8797 -1.722218,-2.47866 -3.252321,-5.22258 -4.034179,-8.14747 -0.9928212,-3.24801 -0.523534,-6.55252 1.337083,-9.36768 1.444675,-2.80741 2.506919,-6.30496 5.86219,-7.36213 3.400703,-1.52086 7.029164,-2.94784 10.832936,-2.55749 2.217351,-1.0733 2.789233,-5.17383 -0.720793,-4.31661 -4.668258,-0.43024 -9.964588,0.56437 -13.2843,4.05271 -2.082597,2.13311 -5.0378502,3.39006 -6.2942962,6.29253 -1.644324,3.46638 -2.368718,7.29907 -2.111426,11.13189 -0.5067,3.82608 1.198797,7.40809 3.220497,10.54086 2.1107382,3.31624 4.8644432,6.81484 8.6449412,8.15239 1.585917,0.16274 3.243758,3.51488 0.506686,1.90398 -3.758399,-0.29168 -6.363735,-3.40206 -9.1047322,-5.64118 -2.560648,-2.72052 -5.050623,-5.83595 -5.980934,-9.51411 -0.730369,-3.79664 -0.616943,-7.72942 -0.320299,-11.55921 0.313445,-4.03791 2.213995,-7.66839 4.654213,-10.81107 3.3482502,-4.03608 8.0003352,-7.0585801 13.1494262,-8.1482801 3.530936,-0.63327 7.345437,0.73238 10.705208,-0.65295 2.131453,-2.13909 0.139589,-5.47914 1.1012,-7.97463995 3.102413,-0.19659 5.148712,3.43462995 6.966708,5.68779995 1.936717,1.72969 3.031844,4.10891 5.004542,5.8366901 2.933302,2.5569 5.727966,5.29469 7.866879,8.56486 2.651248,2.30227 4.591897,5.27595 7.056819,7.77907 3.384575,1.5265 2.47872,5.23763 -0.05543,7.11203 -2.296029,2.89467 -5.325482,5.05831 -7.838309,7.78671 -1.749617,2.47946 -3.617433,4.79219 -6.456518,6.36138 -3.172562,2.97944 -5.205999,7.24478 -9.289451,9.17648 -2.297509,1.89363 -4.517142,3.91567 -7.404252,4.86109 -1.955665,0.6264 -4.70867,1.30807 -6.593997,0.34981 z m 3.213603,-2.4102 c 4.058788,-0.85228 7.165129,-3.78152 10.672244,-5.78111 1.994295,-2.53621 4.609904,-4.55076 6.313846,-7.29188 2.770317,-2.57723 5.81796,-4.95961 7.820518,-8.22506 2.192928,-2.95862 5.737682,-4.88987 7.490318,-8.10533 -0.87841,-3.15571 -4.327577,-4.9573 -5.701516,-8.0242 -1.411431,-2.32824 -3.686599,-3.85788 -5.283497,-6.03811 -2.011779,-2.1533 -3.839704,-4.48318 -5.645539,-6.79029 -2.030545,-1.4306701 -4.316264,-5.2678301 -5.618198,-5.7135501 -1.064673,3.37643 -0.04416,7.2250101 -1.929962,10.3326801 -1.840834,3.80549 3.514258,3.74379 5.122081,6.1189 2.983255,1.7913 3.606276,5.12762 4.660509,8.13993 2.010316,5.82011 0.109068,12.48297 -4.106719,16.84913 -1.713226,2.24278 -4.919468,2.91985 -6.120808,5.67237 -2.369498,2.12597 -4.87659,4.32659 -7.087048,6.71793 -0.948281,0.64037 -3.634137,3.65235 -0.586229,2.13859 z m 23.413395,-28.92243 c -3.123739,-2.89729 2.849695,-6.85136 3.846454,-2.26914 0.536398,2.09232 -2.261508,3.90102 -3.846454,2.26914 z M 36.975397,18.533143 c -3.317808,-2.19071 2.010857,-7.05523 3.75458,-3.30687 1.084622,2.41626 -1.424637,4.97789 -3.75458,3.30687 z"
       id="path300" /></g></svg>
