<?xml version="1.0" standalone="no"?>
<!DOCTYPE svg PUBLIC "-//W3C//DTD SVG 20010904//EN"
 "http://www.w3.org/TR/2001/REC-SVG-20010904/DTD/svg10.dtd">
<svg version="1.0" xmlns="http://www.w3.org/2000/svg"
 width="1024.000000pt" height="1024.000000pt" viewBox="0 0 1024.000000 1024.000000"
 preserveAspectRatio="xMidYMid meet">
<metadata>
Created by potrace 1.14, written by Peter Selinger 2001-2017
</metadata>
<g transform="translate(0.000000,1024.000000) scale(0.100000,-0.100000)"
fill="#000000" stroke="none">
<path d="M2103 10211 c-17 -16 -46 -34 -65 -39 -34 -9 -174 -94 -193 -116 -5
-6 -64 -52 -130 -100 -66 -49 -124 -94 -130 -100 -5 -6 -50 -43 -100 -81 -277
-214 -546 -481 -650 -645 -12 -19 -33 -44 -45 -55 -12 -11 -40 -43 -61 -72
-21 -28 -56 -68 -76 -88 -21 -20 -56 -60 -78 -89 -22 -29 -59 -77 -83 -106
-36 -44 -122 -204 -122 -225 0 -12 -100 -154 -135 -192 -19 -21 -40 -54 -46
-73 -7 -19 -15 -39 -19 -45 -5 -5 -18 -41 -30 -80 -12 -38 -47 -121 -78 -184
l-57 -114 -3 -2563 c-2 -2494 -2 -2564 16 -2564 11 0 34 11 53 25 19 14 49 32
67 40 17 8 32 20 32 26 0 5 12 22 27 37 64 63 121 171 153 287 15 56 47 141
72 190 23 45 26 47 36 28 6 -11 11 -56 11 -99 0 -44 0 -133 1 -200 l0 -120
-30 -22 c-28 -21 -30 -26 -29 -90 1 -73 -19 -131 -71 -209 -17 -24 -30 -48
-30 -52 0 -4 -10 -12 -23 -18 -13 -6 -47 -33 -77 -60 -82 -73 -131 -109 -172
-126 -38 -16 -38 -16 -38 -76 0 -64 3 -70 25 -47 8 7 46 21 85 31 38 9 74 23
78 30 4 7 32 23 62 36 59 25 95 58 111 100 11 29 50 54 71 46 8 -3 31 -58 51
-123 21 -66 42 -132 48 -149 6 -16 17 -55 24 -85 7 -30 25 -79 39 -107 14 -29
26 -61 26 -70 0 -10 9 -31 20 -48 11 -16 20 -40 20 -51 0 -12 7 -27 15 -34 8
-7 18 -28 21 -48 4 -20 16 -56 26 -79 10 -24 18 -60 17 -80 -2 -22 4 -49 14
-64 9 -14 18 -48 19 -76 2 -46 -1 -55 -40 -100 -23 -28 -62 -67 -87 -87 -81
-67 -98 -135 -46 -187 16 -16 36 -29 44 -29 16 0 110 98 155 162 32 45 59 49
67 11 3 -16 12 -41 19 -58 26 -58 69 -140 75 -145 11 -8 84 -139 127 -225 75
-153 158 -261 379 -491 57 -60 126 -114 145 -114 5 0 18 -12 29 -26 11 -14 25
-23 31 -19 17 10 11 25 -9 25 -18 0 -51 47 -51 72 0 13 -132 199 -187 263 -15
17 -34 44 -45 61 -10 17 -28 36 -41 43 -37 20 -137 217 -137 272 0 9 -7 24
-15 33 -8 8 -15 21 -15 29 0 8 -9 26 -20 40 -11 14 -20 32 -20 40 0 9 -6 22
-14 29 -7 8 -17 29 -21 46 -3 18 -11 32 -15 32 -5 0 -12 16 -16 36 -4 19 -13
38 -20 41 -9 3 -14 21 -14 49 0 32 -4 44 -15 44 -10 0 -15 10 -15 30 0 27 2
30 19 20 22 -11 61 -58 61 -73 0 -30 58 -124 85 -138 24 -13 29 -22 31 -53 0
-20 5 -41 11 -47 12 -12 43 -1 43 16 0 7 6 18 14 24 17 14 31 -1 40 -45 4 -18
23 -50 42 -72 18 -22 34 -45 34 -51 0 -6 6 -11 14 -11 8 0 24 -11 37 -25 13
-13 34 -25 46 -25 31 0 91 -55 89 -82 -1 -15 7 -24 26 -30 15 -5 51 -33 81
-63 30 -29 64 -56 76 -60 12 -3 21 -10 21 -15 0 -5 9 -11 19 -15 10 -3 34 -20
54 -38 44 -41 107 -91 121 -96 6 -2 13 -7 16 -10 19 -23 140 -106 185 -128 30
-14 55 -28 55 -32 0 -4 25 -20 55 -36 30 -17 55 -33 55 -37 0 -5 5 -8 12 -8 6
0 61 -24 122 -54 61 -30 134 -62 161 -71 28 -9 60 -23 72 -31 19 -12 200 -14
1252 -14 l1229 0 6 27 c23 106 31 359 19 581 -5 110 -8 122 -25 122 -13 0 -18
7 -18 25 0 18 5 25 19 25 15 0 21 9 25 38 12 78 0 320 -18 341 -19 23 -14 332
6 416 25 103 58 349 58 429 0 39 9 126 20 195 17 108 19 143 11 241 -13 150
-36 359 -56 487 -8 57 -15 120 -15 141 0 21 -6 47 -14 58 -8 11 -19 70 -26
139 -6 66 -18 159 -26 206 -17 102 -11 182 21 294 13 44 26 114 28 156 5 70 3
78 -19 102 -28 31 -44 67 -45 105 0 20 -11 35 -41 57 -46 33 -47 35 -80 123
-12 35 -38 81 -55 102 -18 21 -33 43 -33 49 0 6 -4 11 -10 11 -5 0 -10 6 -10
12 0 7 -25 37 -55 68 -70 69 -205 228 -205 241 0 5 -7 9 -16 9 -9 0 -128 111
-264 247 -137 137 -319 317 -404 401 -86 84 -156 160 -156 168 0 8 -4 14 -9
14 -13 0 -52 37 -136 130 -137 150 -302 327 -400 427 -55 56 -131 137 -170
179 -38 42 -95 103 -125 134 -50 53 -111 120 -183 203 -15 18 -32 36 -36 40
-35 35 -50 51 -81 88 -19 23 -67 76 -106 118 -39 42 -79 91 -88 109 -10 18
-24 41 -32 50 -8 9 -33 40 -55 67 -22 28 -52 64 -68 80 -15 17 -36 44 -46 60
-10 17 -26 35 -34 42 -9 6 -34 37 -56 69 -22 32 -54 72 -70 89 -17 16 -43 56
-59 87 -15 31 -35 63 -43 69 -8 7 -24 31 -35 53 -11 23 -36 58 -54 79 -19 20
-34 44 -34 52 0 8 -4 15 -9 15 -6 0 -16 11 -23 24 -7 14 -38 67 -69 119 -74
123 -78 134 -44 143 38 9 913 -3 1015 -15 47 -5 302 -12 567 -16 509 -6 513
-6 475 38 -14 16 -17 100 -24 690 -5 390 -12 685 -18 702 -5 17 -10 139 -10
271 1 271 -6 354 -26 354 -8 0 -14 9 -14 20 0 17 -7 20 -40 20 -22 0 -40 4
-40 9 0 5 -313 10 -743 10 l-743 2 -31 -30z m802 -6004 c61 -9 147 -24 190
-35 44 -11 101 -22 127 -26 41 -5 93 -24 168 -61 14 -7 39 -16 57 -19 17 -4
39 -18 47 -32 9 -13 25 -24 34 -24 27 0 143 -58 172 -85 14 -13 48 -34 75 -46
28 -12 64 -33 80 -46 130 -104 196 -153 209 -153 8 0 19 -12 25 -27 6 -16 31
-57 56 -92 25 -36 45 -70 45 -77 0 -38 -55 -126 -111 -179 -6 -5 -35 -35 -64
-65 -47 -48 -95 -79 -185 -119 -14 -6 -43 -22 -65 -35 -71 -42 -217 -77 -385
-92 -395 -36 -662 -11 -850 79 -52 25 -112 50 -134 56 -21 5 -46 16 -55 24 -9
8 -56 36 -106 62 -49 25 -97 52 -105 60 -8 7 -25 16 -37 19 -29 9 -133 129
-133 154 0 11 -11 44 -24 73 -14 30 -28 80 -31 112 -4 31 -13 61 -20 65 -11 7
-24 66 -47 207 -5 33 -9 71 -10 85 -1 26 40 80 60 80 6 0 29 9 50 20 21 11 85
31 143 45 265 62 285 67 379 85 64 12 315 5 445 -13z m-2355 -1377 c0 -5 -4
-10 -10 -10 -5 0 -10 5 -10 10 0 6 5 10 10 10 6 0 10 -4 10 -10z m-20 -72 c0
-10 -4 -18 -10 -18 -5 0 -10 15 -10 33 0 24 3 28 10 17 5 -8 10 -23 10 -32z
m61 -241 c-8 -8 -11 5 -10 49 l1 59 10 -48 c8 -35 7 -52 -1 -60z m39 -103 c0
-8 -4 -14 -10 -14 -5 0 -10 9 -10 21 0 11 5 17 10 14 6 -3 10 -13 10 -21z
m280 -875 c0 -10 -4 -19 -10 -19 -5 0 -10 12 -10 26 0 14 4 23 10 19 6 -3 10
-15 10 -26z m27 -86 c-3 -10 -5 -4 -5 12 0 17 2 24 5 18 2 -7 2 -21 0 -30z
m69 -48 c15 -5 14 -9 -6 -30 -27 -29 -40 -24 -40 15 0 22 4 28 15 25 8 -3 22
-7 31 -10z m214 -291 c0 -8 -4 -12 -10 -9 -5 3 -10 10 -10 16 0 5 5 9 10 9 6
0 10 -7 10 -16z m3880 -200 c0 -17 -22 -14 -28 4 -2 7 3 12 12 12 9 0 16 -7
16 -16z m-170 -44 c0 -5 -7 -10 -15 -10 -8 0 -15 5 -15 10 0 6 7 10 15 10 8 0
15 -4 15 -10z"/>
<path d="M4500 10225 c28 -16 125 -19 235 -6 39 5 117 4 175 -1 116 -10 150
-28 150 -78 0 -56 17 -63 238 -92 45 -6 82 -14 82 -18 0 -4 -7 -13 -15 -20 -8
-7 -15 -20 -15 -29 0 -9 -7 -26 -15 -38 -24 -34 -32 -221 -12 -275 8 -24 18
-59 21 -78 4 -19 18 -66 32 -104 23 -59 25 -73 15 -106 -6 -20 -11 -59 -11
-86 0 -27 -7 -80 -16 -119 -10 -46 -17 -148 -21 -297 -5 -213 -5 -229 14 -265
11 -21 23 -64 26 -96 3 -32 11 -65 17 -72 6 -8 14 -49 17 -92 3 -43 12 -90 19
-105 8 -15 14 -37 14 -50 0 -13 6 -32 14 -43 7 -11 16 -49 18 -85 6 -68 43
-206 59 -216 12 -7 12 -109 0 -148 -5 -17 -16 -67 -25 -111 -27 -134 -36 -168
-53 -213 -13 -35 -15 -68 -10 -183 3 -77 10 -145 15 -152 6 -7 12 -41 14 -77
2 -36 12 -103 21 -150 9 -47 21 -114 26 -150 16 -101 31 -173 40 -195 5 -11
13 -54 19 -95 6 -41 20 -118 32 -170 12 -52 28 -133 35 -179 8 -46 18 -96 24
-110 5 -14 12 -46 16 -71 3 -25 12 -67 20 -95 19 -69 34 -152 52 -275 25 -183
26 -193 14 -275 -6 -44 -16 -125 -21 -180 -17 -184 -35 -331 -66 -560 -8 -60
-21 -155 -28 -210 -7 -55 -18 -125 -24 -155 -6 -30 -14 -93 -17 -140 -4 -47
-11 -103 -16 -125 -9 -42 -33 -380 -33 -475 0 -30 11 -98 23 -150 12 -52 26
-124 31 -160 5 -36 14 -96 20 -135 11 -77 21 -171 46 -440 9 -99 20 -184 25
-189 13 -14 11 -67 -6 -160 -8 -44 -19 -121 -25 -171 -6 -49 -15 -121 -20
-160 -5 -38 -9 -129 -9 -202 -1 -72 -5 -142 -10 -156 -5 -13 -19 -119 -32
-236 -20 -187 -21 -216 -9 -244 8 -18 15 -70 17 -117 1 -47 3 -96 5 -110 1
-14 -1 -88 -5 -165 -7 -128 4 -419 19 -522 l6 -43 1045 0 1045 0 66 37 c37 20
81 50 98 67 47 46 76 66 96 66 25 0 107 51 159 98 24 23 49 42 56 42 7 0 16 6
20 13 4 7 24 24 43 37 19 13 41 32 48 42 9 13 20 17 34 13 21 -7 58 19 58 40
0 7 18 24 40 39 33 22 40 32 40 59 0 41 7 49 31 36 23 -12 26 -61 5 -78 -8 -7
-17 -24 -21 -39 -3 -14 -23 -72 -44 -127 -55 -147 -71 -199 -70 -231 1 -19 3
-22 6 -11 3 11 11 16 19 13 20 -8 52 39 70 106 11 38 24 62 35 67 18 6 99 159
99 186 0 8 13 22 29 31 30 18 41 39 41 85 0 17 9 33 25 43 32 21 46 48 90 185
28 84 42 115 56 118 23 6 24 31 3 61 -14 21 -13 26 16 77 17 30 35 55 38 55 4
0 19 21 32 47 14 27 33 59 43 72 9 13 17 32 17 42 0 22 25 100 50 154 10 22
30 72 44 110 15 39 37 93 51 120 14 28 28 68 31 90 4 22 18 63 31 92 12 30 23
66 23 81 0 15 16 72 35 127 19 55 35 116 35 136 0 23 7 42 19 53 11 10 25 39
31 65 6 25 15 62 20 81 15 62 33 99 53 104 14 3 18 11 14 25 -5 19 -2 20 42
14 25 -3 51 -11 57 -19 6 -7 19 -11 30 -8 15 4 23 -2 31 -19 13 -29 74 -47
156 -47 122 0 262 106 429 324 l38 50 0 2783 0 2784 -103 152 c-56 84 -116
170 -132 191 -61 79 -249 313 -286 356 -21 25 -53 63 -71 84 -67 80 -337 351
-463 464 -71 65 -131 120 -133 124 -13 27 -247 196 -313 225 -25 11 -103 59
-172 107 -75 51 -136 86 -151 86 -13 0 -31 6 -38 14 -47 47 -37 46 -703 46
-595 -1 -627 -2 -668 -20 -23 -11 -62 -19 -87 -19 -45 1 -45 1 18 14 34 7 66
15 69 19 3 3 -214 6 -483 6 -474 0 -488 -1 -462 -18 l27 -18 -83 -12 c-47 -7
-110 -9 -141 -6 -53 7 -56 8 -51 30 5 19 2 24 -14 24 -16 0 -20 -7 -20 -30 0
-37 -23 -49 -54 -29 -14 9 -50 14 -103 14 -71 0 -85 3 -105 23 -19 17 -36 22
-75 22 -32 0 -53 -5 -56 -12 -3 -10 -9 -10 -26 0 -26 15 -66 16 -91 0 -15 -10
-26 -10 -53 0 -54 19 -87 16 -87 -10 l0 -21 -23 21 c-24 23 -51 32 -29 10 7
-7 12 -19 12 -27 0 -10 -5 -6 -13 9 l-13 25 -294 2 c-261 2 -292 1 -270 -12z
m2008 -22 c-10 -2 -28 -2 -40 0 -13 2 -5 4 17 4 22 1 32 -1 23 -4z m-1338 -18
c0 -8 -4 -15 -10 -15 -5 0 -7 7 -4 15 4 8 8 15 10 15 2 0 4 -7 4 -15z m1671 8
c-14 -3 -35 -12 -47 -20 -13 -8 -29 -13 -36 -10 -9 4 -8 6 3 6 9 1 22 8 29 16
7 8 27 14 44 14 26 -2 27 -2 7 -6z m-1394 -27 c15 -12 33 -25 40 -27 9 -3 8
-8 -1 -22 -14 -18 -110 -42 -99 -24 4 6 -24 8 -80 5 -80 -4 -85 -3 -76 14 7
14 22 18 58 18 45 0 50 3 61 30 16 38 56 41 97 6z m1286 -13 c-7 -2 -19 -2
-25 0 -7 3 -2 5 12 5 14 0 19 -2 13 -5z m-1543 -14 c14 -1 3 -5 -25 -8 -57 -7
-60 -7 -50 9 4 7 17 9 29 6 11 -3 32 -6 46 -7z m-5 -29 c4 -7 -3 -8 -22 -4
-38 9 -42 14 -10 14 14 0 29 -5 32 -10z m3263 -5950 c16 0 22 -6 22 -22 0 -35
-21 -140 -35 -173 -24 -58 -37 -101 -46 -151 -5 -28 -16 -64 -24 -80 -8 -16
-15 -34 -15 -41 0 -11 -39 -63 -102 -135 -18 -21 -56 -51 -83 -67 -28 -16 -62
-40 -75 -55 -14 -14 -31 -26 -37 -26 -7 0 -25 -11 -40 -25 -73 -65 -307 -215
-336 -215 -10 0 -30 -6 -45 -14 -49 -25 -185 -54 -297 -65 -117 -10 -338 0
-410 20 -22 6 -62 14 -90 19 -27 4 -70 19 -95 33 -25 14 -85 46 -135 71 -66
32 -109 63 -158 111 -99 97 -107 135 -38 177 20 12 57 40 82 62 85 75 116 101
139 116 12 8 39 27 59 42 90 69 150 107 174 113 15 4 31 13 38 21 6 8 18 14
25 14 8 0 33 12 56 26 22 14 64 34 92 45 28 10 83 30 121 44 155 59 335 112
459 137 77 15 342 25 566 21 113 -2 215 -3 228 -3z m142 -3510 c0 -16 -4 -30
-10 -30 -11 0 -14 43 -3 53 11 12 13 8 13 -23z"/>
<path d="M1680 99 c0 -5 5 -7 10 -4 6 3 10 8 10 11 0 2 -4 4 -10 4 -5 0 -10
-5 -10 -11z"/>
</g>
</svg>
