<?xml version="1.0" standalone="no"?>
<!DOCTYPE svg PUBLIC "-//W3C//DTD SVG 20010904//EN"
 "http://www.w3.org/TR/2001/REC-SVG-20010904/DTD/svg10.dtd">
<svg version="1.0" xmlns="http://www.w3.org/2000/svg"
 width="700.000000pt" height="700.000000pt" viewBox="0 0 700.000000 700.000000"
 preserveAspectRatio="xMidYMid meet">
<metadata>
Created by potrace 1.14, written by Peter Selinger 2001-2017
</metadata>
<g transform="translate(0.000000,700.000000) scale(0.100000,-0.100000)"
fill="#000000" stroke="none">
<path d="M2704 6945 c-13 -31 -24 -58 -24 -61 0 -3 -9 -24 -20 -48 -19 -43
-185 -436 -304 -719 -150 -357 -308 -734 -321 -762 -7 -16 -57 -133 -110 -260
-52 -126 -106 -255 -120 -285 -13 -30 -110 -260 -215 -510 -106 -250 -198
-468 -205 -485 -8 -16 -48 -113 -90 -215 -42 -102 -80 -192 -84 -200 -5 -9
-37 -83 -71 -165 -70 -170 -147 -350 -160 -380 -5 -11 -167 -396 -360 -855
-193 -459 -362 -859 -376 -888 -13 -29 -24 -55 -24 -58 0 -3 -13 -36 -29 -72
-16 -37 -66 -153 -110 -259 l-81 -192 2 -258 3 -258 755 0 754 0 13 25 c7 14
47 113 89 220 79 207 121 312 135 345 11 26 264 670 294 750 13 33 43 112 68
175 l45 115 1348 2 1349 3 24 -63 c47 -122 314 -805 491 -1252 l126 -320 752
0 752 0 0 258 0 259 -131 311 c-72 172 -137 326 -144 342 -8 17 -39 91 -70
165 -31 74 -62 149 -70 165 -7 17 -90 215 -185 440 -94 226 -203 484 -242 575
-38 91 -85 203 -105 250 -19 47 -54 130 -78 185 -23 55 -58 138 -78 185 -127
304 -310 740 -322 765 -7 17 -36 86 -65 155 -29 69 -64 154 -80 190 -15 36
-50 119 -78 185 -28 66 -141 334 -250 595 -110 261 -221 525 -246 585 -44 105
-73 173 -102 240 -47 111 -243 576 -273 650 -21 50 -75 179 -121 288 l-83 197
-774 0 -774 0 -25 -55z m646 -569 c0 -10 -179 -456 -344 -856 -24 -58 -76
-186 -116 -285 -40 -99 -78 -193 -85 -210 -12 -27 -37 -88 -188 -460 -25 -60
-119 -292 -210 -515 -91 -223 -195 -479 -232 -570 -37 -91 -72 -176 -78 -190
-5 -14 -11 -29 -13 -35 -3 -9 -103 -255 -123 -300 -10 -24 -12 -27 -116 -285
-46 -113 -92 -227 -103 -255 l-20 -50 1774 1 c975 0 1776 2 1779 5 4 4 -164
430 -195 494 -5 11 -46 110 -90 220 -44 110 -89 220 -100 245 -18 41 -59 141
-281 690 -44 107 -84 204 -89 215 -5 11 -25 58 -43 105 -43 108 -364 895 -382
935 -17 39 -407 994 -433 1061 l-20 50 83 1 83 1 28 -67 c15 -36 35 -84 45
-106 9 -22 28 -67 42 -100 13 -33 62 -148 107 -255 45 -107 118 -280 162 -385
43 -104 85 -203 93 -220 7 -16 25 -59 40 -95 14 -36 32 -78 40 -95 7 -16 54
-127 103 -245 49 -118 132 -316 185 -440 168 -396 578 -1372 612 -1455 18 -44
42 -100 53 -125 11 -25 98 -229 192 -455 95 -225 178 -423 185 -440 8 -16 66
-156 131 -310 64 -154 125 -298 134 -320 15 -32 247 -584 267 -633 4 -9 -25
-12 -125 -12 l-130 0 -10 28 c-25 67 -154 399 -162 417 -10 21 -59 148 -275
700 -75 193 -142 364 -150 380 -7 17 -19 47 -26 68 -7 20 -18 38 -24 38 -5 1
-826 2 -1823 3 -1202 1 -1816 -2 -1821 -9 -7 -8 -160 -393 -221 -555 -30 -78
-240 -614 -249 -635 -5 -11 -33 -81 -61 -155 -29 -74 -65 -166 -80 -205 l-29
-70 -136 -3 c-109 -2 -136 0 -132 10 3 7 69 164 147 348 142 334 205 484 339
805 39 94 76 179 81 190 5 11 95 225 200 475 105 250 195 464 200 475 5 11 84
198 176 415 91 217 172 409 179 425 8 17 98 230 201 475 102 245 194 463 204
485 10 22 82 193 160 380 79 187 151 358 161 381 10 22 27 63 38 91 11 28 29
70 40 94 10 24 81 190 156 369 74 178 141 327 146 331 20 12 149 8 149 -5z
m187 -1504 c17 -42 86 -212 153 -377 67 -165 128 -313 135 -330 7 -16 68 -165
135 -330 67 -165 128 -313 135 -330 7 -16 27 -66 45 -110 17 -44 37 -93 45
-110 7 -16 38 -92 68 -167 l55 -138 -804 0 c-442 0 -804 3 -804 7 0 6 88 226
115 288 7 17 115 282 240 590 125 308 233 574 240 590 7 17 48 116 90 220 42
105 83 204 91 222 8 17 14 36 14 42 0 29 18 3 47 -67z"/>
</g>
</svg>
